<?xml version="1.0" encoding="UTF-8" standalone="no"?>
<svg xmlns="http://www.w3.org/2000/svg" height="369px" width="366px" version="1.1" xmlns:xlink="http://www.w3.org/1999/xlink" viewBox="0 0 366 369"><!-- Generator: Sketch 51.1 (57501) - http://www.bohemiancoding.com/sketch -->
 <title>circle</title>
 <desc>Created with Sketch.</desc>
 <g id="final-version" fill-rule="evenodd" fill="none">
  <g id="FINAL---Takeover-large-screen" fill-rule="nonzero" fill="#DE5933" transform="translate(-771 -156)">
   <g id="ilustration" transform="translate(719 104)">
    <g id="circle" transform="translate(235 236.5) rotate(250) translate(-185 -182.5)">
     <path id="Fill-10" d="m185.94 2.7084c-0.72 0-1.3-0.5789-1.3-1.2917 0-0.71586 0.58-1.2933 1.3-1.2933 0.73-0.0001 1.32 0.57744 1.32 1.2933 0 0.7128-0.59 1.2917-1.32 1.2917"/>
     <path id="Fill-11" d="m194.7 2.8757c-0.73 0-1.3-0.579-1.3-1.2904 0-0.71576 0.57-1.2949 1.3-1.2949 0.73 0.00008 1.31 0.57914 1.31 1.2949 0 0.7114-0.58 1.2904-1.31 1.2904"/>
     <path id="Fill-12" d="m203.4 3.4487c-0.72 0-1.31-0.5806-1.31-1.2965 0-0.7143 0.59-1.2933 1.31-1.2933 0.72-0.00001 1.31 0.579 1.31 1.2933 0 0.7159-0.59 1.2965-1.31 1.2965"/>
     <path id="Fill-13" d="m211.92 4.4273c-0.73-0.1002-1.23-0.7567-1.13-1.462 0.11-0.7082 0.77-1.1976 1.49-1.0957 0.71 0.1003 1.21 0.7554 1.11 1.4636-0.1 0.7052-0.77 1.196-1.47 1.0941"/>
     <path id="Fill-14" d="m220.55 5.8257c-0.71-0.1018-1.22-0.757-1.11-1.4622 0.1-0.7082 0.76-1.199 1.49-1.0972 0.71 0.1018 1.21 0.7569 1.11 1.465-0.12 0.7053-0.77 1.1947-1.49 1.0944"/>
     <path id="Fill-15" d="m229.08 7.6144c-0.71-0.1017-1.21-0.7584-1.11-1.4666s0.77-1.1991 1.49-1.0958c0.71 0.1004 1.2 0.7554 1.1 1.4636-0.11 0.7083-0.77 1.2006-1.48 1.0988"/>
     <path id="Fill-16" d="m237.17 9.975c-0.69-0.2069-1.09-0.9273-0.88-1.6098 0.21-0.6854 0.94-1.0714 1.63-0.8647 0.69 0.2051 1.09 0.9255 0.88 1.611-0.21 0.682-0.95 1.0695-1.63 0.8635"/>
     <path id="Fill-17" d="m245.5 12.634c-0.69-0.206-1.09-0.928-0.88-1.61 0.21-0.684 0.95-1.0724 1.64-0.865 0.68 0.206 1.08 0.927 0.87 1.612-0.21 0.682-0.94 1.068-1.63 0.863"/>
     <path id="Fill-18" d="m253.67 15.666c-0.69-0.207-1.09-0.931-0.88-1.615 0.21-0.686 0.94-1.072 1.63-0.866s1.09 0.927 0.87 1.612c-0.2 0.686-0.94 1.074-1.62 0.869"/>
     <path id="Fill-19" d="m261.52 19.03c-0.66-0.303-0.95-1.071-0.64-1.718 0.31-0.649 1.09-0.928 1.75-0.627 0.65 0.301 0.93 1.069 0.63 1.719-0.31 0.645-1.09 0.924-1.74 0.626"/>
     <path id="Fill-20" d="m269.39 22.832c-0.66-0.301-0.95-1.07-0.65-1.716 0.32-0.648 1.1-0.93 1.75-0.627 0.65 0.3 0.94 1.069 0.64 1.718-0.32 0.646-1.09 0.927-1.74 0.625"/>
     <path id="Fill-21" d="m277.02 26.981c-0.64-0.304-0.93-1.074-0.62-1.722 0.3-0.649 1.07-0.928 1.73-0.627 0.66 0.3 0.95 1.07 0.64 1.719-0.3 0.649-1.08 0.929-1.75 0.63"/>
     <path id="Fill-30" d="m334.44 78.208c-0.48-0.542-0.41-1.36 0.14-1.825s1.37-0.402 1.85 0.139c0.47 0.542 0.4 1.358-0.15 1.822-0.55 0.468-1.38 0.405-1.84-0.136"/>
     <path id="Fill-31" d="m339.22 85.224c-0.39-0.604-0.22-1.404 0.4-1.784 0.61-0.385 1.42-0.207 1.81 0.398 0.39 0.6 0.21 1.399-0.41 1.783-0.61 0.382-1.42 0.205-1.8-0.397"/>
     <path id="Fill-32" d="m343.77 92.616c-0.39-0.602-0.21-1.402 0.41-1.789 0.6-0.377 1.4-0.206 1.8 0.405 0.38 0.594 0.21 1.393-0.41 1.781-0.6 0.386-1.41 0.205-1.8-0.397"/>
     <path id="Fill-33" d="m347.96 100.18c-0.4-0.605-0.21-1.406 0.4-1.796 0.6-0.381 1.41-0.205 1.8 0.4 0.38 0.605 0.21 1.406-0.41 1.786-0.6 0.39-1.41 0.21-1.79-0.39"/>
     <path id="Fill-34" d="m351.41 107.9c-0.29-0.64 0.01-1.42 0.67-1.7 0.66-0.29 1.43 0 1.72 0.66 0.3 0.65-0.01 1.42-0.66 1.7-0.67 0.3-1.43-0.01-1.73-0.66"/>
     <path id="Fill-35" d="m354.79 115.88c-0.28-0.65 0.01-1.42 0.66-1.71 0.68-0.28 1.45 0.01 1.73 0.67 0.3 0.65 0 1.41-0.66 1.7s-1.43 0-1.73-0.66"/>
     <path id="Fill-36" d="m357.79 123.97c-0.3-0.64 0.01-1.41 0.66-1.7 0.67-0.29 1.45 0.01 1.73 0.66 0.3 0.65-0.01 1.41-0.66 1.7-0.67 0.3-1.44 0-1.73-0.66"/>
     <path id="Fill-37" d="m360.32 132.05c-0.19-0.69 0.21-1.39 0.9-1.59 0.7-0.19 1.43 0.21 1.61 0.89 0.21 0.68-0.2 1.41-0.89 1.59-0.71 0.21-1.43-0.2-1.62-0.89"/>
     <path id="Fill-38" d="m362.24 139.25c-0.2-0.68 0.21-1.4 0.91-1.59 0.69-0.21 1.42 0.2 1.61 0.89 0.2 0.69-0.21 1.4-0.91 1.6-0.69 0.18-1.42-0.22-1.61-0.9"/>
     <path id="Fill-38-Copy" d="m365.17 148.1c-0.2-0.68 0.21-1.4 0.91-1.59 0.69-0.2 1.42 0.21 1.61 0.89 0.2 0.69-0.21 1.4-0.91 1.6-0.69 0.19-1.42-0.21-1.61-0.9"/>
     <path id="Fill-38-Copy-2" d="m366.14 156.58c-0.19-0.68 0.22-1.41 0.91-1.59 0.69-0.21 1.43 0.2 1.61 0.89 0.21 0.69-0.2 1.4-0.91 1.6-0.69 0.18-1.41-0.22-1.61-0.9"/>
     <path id="Fill-38-Copy-3" d="m367.12 165.6c-0.2-0.68 0.21-1.4 0.91-1.59 0.69-0.2 1.42 0.21 1.61 0.89 0.2 0.69-0.21 1.4-0.91 1.6-0.69 0.18-1.41-0.22-1.61-0.9"/>
     <path id="Fill-48" d="m364.16 213.86c0.1-0.71 0.76-1.19 1.48-1.09 0.71 0.09 1.21 0.75 1.1 1.46-0.09 0.7-0.76 1.2-1.48 1.09-0.71-0.1-1.21-0.76-1.1-1.46"/>
     <path id="Fill-48-Copy-2" d="m366.44 197.33c0.11-0.71 0.76-1.19 1.49-1.1 0.71 0.1 1.21 0.76 1.1 1.47-0.1 0.7-0.76 1.2-1.48 1.09s-1.21-0.76-1.11-1.46"/>
     <path id="Fill-48-Copy" d="m365.47 205.14c0.1-0.72 0.76-1.2 1.48-1.1 0.71 0.1 1.21 0.75 1.1 1.47-0.09 0.7-0.76 1.2-1.48 1.09-0.71-0.11-1.21-0.76-1.1-1.46"/>
     <path id="Fill-48-Copy-3" d="m367.09 188.49c0.1-0.72 0.76-1.2 1.48-1.1 0.71 0.1 1.21 0.75 1.1 1.47-0.09 0.7-0.76 1.2-1.48 1.09-0.71-0.11-1.21-0.76-1.1-1.46"/>
     <path id="Fill-48-Copy-4" d="m367.09 180.68c0.1-0.71 0.76-1.19 1.48-1.1 0.71 0.1 1.21 0.76 1.1 1.47-0.09 0.7-0.76 1.2-1.48 1.09-0.71-0.11-1.21-0.76-1.1-1.46"/>
     <path id="Fill-48-Copy-5" d="m367.09 173.85c0.1-0.72 0.76-1.19 1.48-1.1 0.71 0.1 1.21 0.75 1.1 1.47-0.09 0.7-0.76 1.2-1.48 1.09-0.71-0.11-1.21-0.76-1.1-1.46"/>
     <path id="Fill-49" d="m362.16 224.54c0.09-0.69 0.77-1.19 1.48-1.09 0.72 0.11 1.22 0.76 1.11 1.47-0.09 0.71-0.77 1.21-1.47 1.1-0.72-0.11-1.22-0.76-1.12-1.48"/>
     <path id="Fill-50" d="m359.52 233.41c0.21-0.68 0.94-1.07 1.64-0.86 0.69 0.2 1.08 0.92 0.86 1.61-0.2 0.68-0.93 1.07-1.62 0.86s-1.09-0.92-0.88-1.61"/>
     <path id="Fill-51" d="m356.83 241.64c0.22-0.68 0.94-1.06 1.62-0.87 0.69 0.21 1.09 0.94 0.89 1.62-0.21 0.69-0.95 1.08-1.64 0.86-0.68-0.2-1.08-0.93-0.87-1.61"/>
     <path id="Fill-52" d="m353.76 249.71c0.21-0.68 0.94-1.07 1.64-0.87 0.69 0.22 1.09 0.93 0.86 1.61-0.2 0.69-0.92 1.08-1.62 0.87-0.69-0.21-1.09-0.92-0.88-1.61"/>
     <path id="Fill-53" d="m350.36 257.47c0.3-0.65 1.07-0.93 1.74-0.63 0.65 0.31 0.94 1.07 0.63 1.72-0.3 0.65-1.08 0.92-1.75 0.63-0.64-0.3-0.93-1.07-0.62-1.72"/>
     <path id="Fill-54" d="m346.5 265.25c0.31-0.66 1.09-0.94 1.74-0.63 0.65 0.29 0.95 1.07 0.64 1.71-0.31 0.65-1.09 0.93-1.74 0.63-0.66-0.31-0.94-1.08-0.64-1.71"/>
     <path id="Fill-55" d="m342.31 272.79c0.3-0.65 1.08-0.92 1.74-0.62s0.94 1.06 0.64 1.72c-0.31 0.64-1.09 0.92-1.75 0.62s-0.94-1.07-0.63-1.72"/>
     <path id="Fill-56" d="m337.98 280.12c0.39-0.6 1.2-0.78 1.81-0.39 0.6 0.38 0.79 1.18 0.4 1.79-0.39 0.59-1.2 0.77-1.81 0.39-0.62-0.39-0.78-1.19-0.4-1.79"/>
     <path id="Fill-57" d="m333.13 287.32c0.38-0.61 1.19-0.78 1.8-0.39 0.61 0.38 0.78 1.18 0.39 1.78-0.38 0.61-1.19 0.77-1.8 0.39s-0.78-1.18-0.39-1.78"/>
     <path id="Fill-66" d="m275.87 338.73c0.61-0.38 1.42-0.21 1.81 0.4 0.38 0.6 0.2 1.4-0.4 1.77-0.61 0.39-1.42 0.21-1.81-0.39s-0.21-1.4 0.4-1.78"/>
     <path id="Fill-67" d="m268.22 342.86c0.61-0.38 1.42-0.21 1.8 0.4 0.39 0.59 0.21 1.39-0.4 1.78-0.6 0.38-1.41 0.21-1.8-0.4-0.39-0.6-0.22-1.4 0.4-1.78"/>
     <path id="Fill-68" d="m260.4 346.27c0.65-0.28 1.43 0.01 1.72 0.66 0.29 0.66-0.01 1.42-0.67 1.7-0.65 0.3-1.43 0-1.72-0.65-0.3-0.65 0-1.42 0.67-1.71"/>
     <path id="Fill-69" d="m252.31 349.62c0.67-0.29 1.45 0.01 1.73 0.65 0.3 0.66-0.01 1.43-0.66 1.71-0.66 0.29-1.44 0-1.73-0.65-0.28-0.66 0.01-1.43 0.66-1.71"/>
     <path id="Fill-70" d="m244.12 352.58c0.67-0.3 1.44 0.01 1.73 0.66 0.3 0.64-0.01 1.42-0.66 1.7-0.67 0.29-1.43 0-1.73-0.66-0.29-0.65 0.01-1.42 0.66-1.7"/>
     <path id="Fill-71" d="m235.95 355.07c0.69-0.18 1.42 0.21 1.61 0.9 0.2 0.69-0.21 1.41-0.91 1.59-0.69 0.2-1.41-0.2-1.62-0.89-0.18-0.69 0.23-1.4 0.92-1.6"/>
     <path id="Fill-72" d="m227.47 357.25c0.7-0.18 1.42 0.21 1.61 0.9 0.2 0.68-0.21 1.4-0.9 1.59s-1.43-0.21-1.61-0.9c-0.2-0.68 0.2-1.39 0.9-1.59"/>
     <path id="Fill-73" d="m218.93 359.03c0.7-0.2 1.43 0.21 1.62 0.9 0.2 0.68-0.21 1.4-0.91 1.6-0.7 0.18-1.41-0.22-1.61-0.91-0.19-0.69 0.21-1.4 0.9-1.59"/>
     <path id="Fill-74" d="m210.58 360.1c0.72-0.09 1.36 0.41 1.45 1.12 0.1 0.72-0.42 1.36-1.13 1.44-0.71 0.1-1.38-0.41-1.46-1.12s0.42-1.35 1.14-1.44"/>
     <path id="Fill-75" d="m201.87 361c0.72-0.09 1.37 0.41 1.45 1.12 0.09 0.71-0.42 1.36-1.14 1.45-0.71 0.08-1.36-0.42-1.45-1.14-0.09-0.69 0.42-1.34 1.14-1.43"/>
     <path id="Fill-76" d="m193.16 361.5c0.71-0.09 1.38 0.41 1.47 1.12 0.07 0.71-0.42 1.36-1.15 1.44-0.71 0.08-1.36-0.42-1.46-1.13-0.09-0.71 0.43-1.36 1.14-1.43"/>
     <path id="Fill-77" d="m184.6 361.55c0.72 0.01 1.3 0.61 1.28 1.32-0.01 0.71-0.61 1.28-1.34 1.27-0.71-0.01-1.29-0.6-1.27-1.32 0-0.72 0.61-1.28 1.33-1.27"/>
     <path id="Fill-78" d="m175.81 361.41c0.73 0 1.31 0.56 1.31 1.28s-0.58 1.3-1.31 1.3c-0.71 0-1.29-0.58-1.29-1.3s0.58-1.28 1.29-1.28"/>
     <path id="Fill-79" d="m167.12 360.83c0.72 0 1.3 0.58 1.3 1.29 0 0.72-0.58 1.3-1.3 1.3-0.73 0-1.31-0.58-1.31-1.3 0-0.71 0.58-1.29 1.31-1.29"/>
     <path id="Fill-80" d="m158.61 359.85c0.72 0.09 1.21 0.76 1.11 1.46s-0.77 1.2-1.48 1.1c-0.72-0.1-1.21-0.76-1.11-1.46 0.11-0.71 0.77-1.2 1.48-1.1"/>
     <path id="Fill-81" d="m149.96 358.45c0.72 0.11 1.22 0.76 1.12 1.47-0.11 0.7-0.77 1.2-1.49 1.09-0.7-0.1-1.2-0.75-1.1-1.47 0.1-0.7 0.76-1.2 1.47-1.09"/>
     <path id="Fill-82" d="m141.44 356.67c0.71 0.09 1.21 0.75 1.11 1.46-0.1 0.7-0.77 1.2-1.48 1.1-0.71-0.11-1.22-0.76-1.11-1.47 0.09-0.7 0.76-1.2 1.48-1.09"/>
     <path id="Fill-83" d="m133.36 354.3c0.69 0.21 1.07 0.93 0.87 1.61-0.21 0.69-0.94 1.07-1.64 0.86-0.69-0.2-1.07-0.92-0.86-1.61 0.2-0.68 0.93-1.06 1.63-0.86"/>
     <path id="Fill-84" d="m125.02 351.64c0.69 0.2 1.08 0.93 0.87 1.61s-0.93 1.08-1.62 0.87c-0.7-0.21-1.09-0.93-0.88-1.61 0.2-0.69 0.94-1.08 1.63-0.87"/>
     <path id="Fill-85" d="m116.86 348.61c0.69 0.21 1.08 0.93 0.87 1.61-0.21 0.7-0.93 1.08-1.63 0.87-0.69-0.2-1.09-0.92-0.88-1.61 0.21-0.68 0.94-1.08 1.64-0.87"/>
     <path id="Fill-86" d="m109 345.25c0.66 0.3 0.94 1.07 0.63 1.71-0.31 0.65-1.08 0.93-1.73 0.64-0.66-0.31-0.94-1.07-0.64-1.73 0.31-0.64 1.08-0.92 1.74-0.62"/>
     <path id="Fill-96" d="m41.308 292.97c0.472 0.54 0.409 1.36-0.138 1.82-0.55 0.46-1.376 0.4-1.847-0.14s-0.408-1.35 0.143-1.82c0.548-0.47 1.374-0.41 1.842 0.14"/>
     <path id="Fill-97" d="m36.083 286.07c0.473 0.54 0.407 1.36-0.143 1.82-0.549 0.47-1.375 0.4-1.845-0.14-0.471-0.53-0.407-1.35 0.142-1.82s1.378-0.4 1.846 0.14"/>
     <path id="Fill-98" d="m31.301 279.05c0.388 0.6 0.208 1.4-0.402 1.8-0.611 0.38-1.418 0.19-1.808-0.41-0.386-0.6-0.206-1.4 0.405-1.78 0.609-0.39 1.418-0.21 1.805 0.39"/>
     <path id="Fill-99" d="m26.746 271.66c0.39 0.61 0.209 1.41-0.4 1.79-0.611 0.38-1.419 0.2-1.808-0.4-0.386-0.61-0.207-1.41 0.405-1.78 0.608-0.39 1.418-0.2 1.803 0.39"/>
     <path id="Fill-100" d="m22.568 264.11c0.39 0.59 0.208 1.39-0.404 1.77-0.611 0.39-1.421 0.21-1.808-0.4-0.388-0.59-0.206-1.39 0.405-1.77 0.61-0.39 1.42-0.21 1.807 0.4"/>
     <path id="Fill-101" d="m19.109 256.37c0.291 0.66-0.007 1.42-0.667 1.71-0.661 0.29-1.434-0.01-1.728-0.67-0.29-0.64 0.008-1.4 0.67-1.7 0.66-0.28 1.432 0.01 1.725 0.66"/>
     <path id="Fill-102" d="m15.721 248.4c0.294 0.65-0.004 1.41-0.664 1.69-0.664 0.31-1.436 0-1.728-0.65-0.293-0.64 0.006-1.42 0.669-1.71 0.658-0.28 1.432 0.01 1.723 0.67"/>
     <path id="Fill-103" d="m12.73 240.29c0.294 0.67-0.006 1.43-0.669 1.71-0.661 0.3-1.435 0-1.727-0.65-0.293-0.65 0.005-1.42 0.668-1.71 0.662-0.28 1.437 0.01 1.728 0.65"/>
     <path id="Fill-104" d="m10.196 232.22c0.197 0.69-0.2089 1.41-0.9026 1.59-0.6985 0.2-1.42-0.2-1.6154-0.89-0.1953-0.69 0.2092-1.4 0.9078-1.59 0.6938-0.19 1.4172 0.2 1.6102 0.89"/>
     <path id="Fill-105" d="m7.9935 223.85c0.1953 0.68-0.2092 1.4-0.9046 1.59-0.697 0.2-1.4184-0.2-1.6153-0.9-0.1939-0.68 0.2107-1.39 0.9076-1.59 0.6954-0.19 1.4168 0.22 1.6123 0.9"/>
     <path id="Fill-117" d="m10.997 130.87c-0.208 0.69-0.939 1.07-1.6298 0.86-0.6922-0.2-1.0845-0.93-0.8753-1.61 0.2077-0.68 0.9384-1.06 1.6321-0.86 0.691 0.2 1.081 0.93 0.873 1.61"/>
     <path id="Fill-118" d="m13.69 122.64c-0.209 0.68-0.94 1.06-1.63 0.85-0.693-0.2-1.085-0.92-0.876-1.61 0.208-0.68 0.938-1.06 1.631-0.85 0.69 0.2 1.083 0.92 0.875 1.61"/>
     <path id="Fill-119" d="m16.756 114.57c-0.208 0.69-0.94 1.07-1.634 0.86-0.692-0.2-1.084-0.92-0.875-1.62 0.207-0.67 0.939-1.06 1.632-0.85 0.692 0.21 1.086 0.93 0.877 1.61"/>
     <path id="Fill-120" d="m20.163 106.81c-0.307 0.65-1.086 0.92-1.739 0.62-0.655-0.29-0.94-1.06-0.635-1.72 0.306-0.64 1.084-0.92 1.739-0.61 0.654 0.29 0.939 1.06 0.635 1.71"/>
     <path id="Fill-121" d="m24.013 99.038c-0.307 0.644-1.085 0.927-1.739 0.625-0.657-0.303-0.94-1.064-0.633-1.718 0.302-0.644 1.082-0.923 1.737-0.627 0.654 0.305 0.939 1.066 0.635 1.72"/>
     <path id="Fill-122" d="m28.211 91.484c-0.306 0.647-1.086 0.925-1.743 0.629-0.655-0.306-0.94-1.07-0.633-1.726 0.303-0.642 1.082-0.923 1.738-0.62 0.657 0.305 0.941 1.069 0.638 1.717"/>
     <path id="Fill-123" d="m32.536 84.157c-0.39 0.601-1.199 0.779-1.806 0.393-0.612-0.384-0.789-1.184-0.399-1.787 0.389-0.6 1.199-0.775 1.808-0.391 0.607 0.385 0.785 1.185 0.397 1.785"/>
     <path id="Fill-124" d="m37.397 76.959c-0.391 0.602-1.199 0.778-1.808 0.395-0.609-0.386-0.788-1.185-0.399-1.789 0.39-0.599 1.199-0.775 1.81-0.391 0.607 0.386 0.785 1.185 0.397 1.785"/>
     <path id="Fill-134" d="m100.49 21.023c-0.38-0.603-0.21-1.404 0.41-1.787 0.6-0.383 1.41-0.204 1.8 0.399s0.21 1.404-0.4 1.787c-0.6 0.382-1.41 0.204-1.81-0.399z"/>
     <path id="Fill-135" d="m110.13 18.004c-0.67 0.288-1.44-0.007-1.73-0.659-0.3-0.654 0-1.417 0.67-1.706 0.65-0.289 1.42 0.006 1.72 0.661 0.29 0.651 0 1.415-0.66 1.704"/>
     <path id="Fill-136" d="m118.19 14.658c-0.65 0.288-1.42-0.006-1.72-0.658-0.29-0.654 0.01-1.417 0.67-1.708 0.66-0.288 1.44 0.009 1.73 0.662 0.29 0.652 0 1.415-0.68 1.704"/>
     <path id="Fill-137" d="m126.4 11.702c-0.67 0.29-1.44-0.006-1.73-0.662-0.3-0.654 0-1.416 0.66-1.7064 0.67-0.2877 1.44 0.0072 1.73 0.661 0.29 0.6544-0.01 1.4194-0.66 1.7074"/>
     <path id="Fill-138" d="m134.58 9.1997c-0.71 0.1932-1.43-0.2087-1.62-0.8937-0.2-0.6884 0.2-1.4028 0.9-1.5959 0.7-0.193 1.42 0.2083 1.61 0.8967 0.2 0.6855-0.2 1.3995-0.89 1.5929"/>
     <path id="Fill-139" d="m143.04 7.0233c-0.69 0.193-1.41-0.2082-1.61-0.8937-0.2-0.6885 0.21-1.4028 0.91-1.5958 0.69-0.193 1.41 0.2083 1.61 0.8967 0.2 0.6854-0.21 1.3998-0.91 1.5928"/>
     <path id="Fill-140" d="m151.58 5.2497c-0.7 0.1929-1.42-0.2099-1.62-0.8983-0.19-0.6884 0.22-1.4012 0.91-1.5957 0.69-0.1916 1.42 0.2082 1.61 0.8966 0.21 0.69-0.2 1.4043-0.9 1.5974"/>
     <path id="Fill-141" d="m159.94 4.1766c-0.71 0.0882-1.38-0.4149-1.46-1.1215-0.08-0.7098 0.41-1.3558 1.14-1.4439 0.72-0.0882 1.36 0.4149 1.46 1.1246 0.09 0.7068-0.43 1.3528-1.14 1.4408"/>
     <path id="Fill-142" d="m168.66 3.2769c-0.72 0.0882-1.38-0.4149-1.47-1.1216-0.08-0.7097 0.42-1.3557 1.14-1.4438 0.72-0.08818 1.37 0.4148 1.46 1.1262 0.09 0.7067-0.43 1.3525-1.13 1.4392"/>
     <path id="Fill-143" d="m177.36 2.786c-0.72 0.0881-1.37-0.4163-1.46-1.1261-0.1-0.70982 0.42-1.3558 1.13-1.4438 0.73-0.08823 1.38 0.41482 1.47 1.1246 0.08 0.7096-0.42 1.3572-1.14 1.4453"/>
     <path id="Fill-144" d="m185.92 2.7237c-0.72-0.0137-1.3-0.6049-1.28-1.3161 0.02-0.71589 0.6-1.2828 1.33-1.2691 0.73 0.01369 1.29 0.60337 1.29 1.3192-0.02 0.7112-0.62 1.2797-1.34 1.266"/>
     <path id="Fill-133" d="m4.3741 217.66c-0.3879-0.6-0.2078-1.4 0.4032-1.78 0.6092-0.38 1.4182-0.21 1.806 0.4 0.3906 0.6 0.2061 1.39-0.4014 1.78-0.6119 0.38-1.4199 0.21-1.8078-0.4z"/>
     <path id="Fill-134" d="m4.6207 209.52c-0.6119 0.38-1.4218 0.21-1.8177-0.4-0.387-0.6-0.2069-1.4 0.405-1.78 0.6119-0.39 1.4217-0.21 1.8087 0.39s0.2069 1.4-0.396 1.79"/>
     <path id="Fill-135" d="m3.5756 200.93c-0.6659 0.28-1.4398-0.01-1.7277-0.67-0.2969-0.65 0.009-1.41 0.666-1.71 0.6568-0.28 1.4307 0.01 1.7276 0.67 0.288 0.65-0.009 1.41-0.6659 1.71"/>
     <path id="Fill-136" d="m2.8812 192.22c-0.6568 0.28-1.4308-0.01-1.7277-0.66-0.28795-0.66 0.009-1.42 0.6749-1.71 0.6569-0.28 1.4308 0.01 1.7187 0.66 0.297 0.66 0 1.42-0.6659 1.71"/>
     <path id="Fill-137" d="m2.6019 183.52c-0.6659 0.29-1.4398-0.01-1.7278-0.66-0.29689-0.65 0.00008-1.41 0.6659-1.71 0.657-0.29 1.4308 0.01 1.7278 0.67 0.288 0.65-0.009 1.41-0.6659 1.7"/>
     <path id="Fill-138" d="m2.5715 174.85c-0.7019 0.19-1.4218-0.21-1.6198-0.89-0.19791-0.69 0.207-1.4 0.9089-1.6 0.693-0.2 1.4129 0.21 1.6108 0.9 0.1979 0.68-0.207 1.4-0.8999 1.59"/>
     <path id="Fill-139" d="m3.1102 166.12c-0.6929 0.2-1.4128-0.2-1.6108-0.88-0.198-0.7 0.207-1.41 0.9089-1.6 0.693-0.2 1.4129 0.2 1.6108 0.89s-0.207 1.4-0.9089 1.59"/>
     <path id="Fill-140" d="m4.0627 157.48c-0.7019 0.18-1.4218-0.22-1.6198-0.9-0.198-0.69 0.2159-1.41 0.9089-1.6 0.6928-0.2 1.4128 0.2 1.6107 0.9 0.198 0.69-0.207 1.4-0.8998 1.6"/>
     <path id="Fill-141" d="m5.4536 149.04c-0.7198 0.08-1.3768-0.42-1.4578-1.13-0.09-0.71 0.4139-1.35 1.1338-1.44s1.3679 0.41 1.4579 1.12c0.09 0.7-0.4229 1.36-1.1339 1.45"/>
     <path id="Fill-142" d="m7.2889 140.48c-0.7199 0.08-1.3768-0.41-1.4578-1.13-0.09-0.71 0.4139-1.35 1.1338-1.44s1.3678 0.42 1.4578 1.13c0.09 0.7-0.4229 1.35-1.1338 1.44"/>
     <path id="Fill-143" d="m9.5061 132.06c-0.7108 0.09-1.3678-0.42-1.4578-1.13-0.09-0.7 0.4229-1.35 1.1339-1.44 0.7199-0.09 1.3768 0.42 1.4668 1.13 0.081 0.7-0.423 1.36-1.1429 1.44"/>
     <path id="Fill-144" d="m11.964 123.73c-0.729-0.01-1.305-0.61-1.287-1.31 0.018-0.72 0.612-1.29 1.332-1.28 0.729 0.02 1.295 0.61 1.287 1.33-0.018 0.71-0.613 1.28-1.332 1.26"/>
    </g>
   </g>
  </g>
 </g>
</svg>
